#!OML:ASF H:\Terrain\Patient Classification 1\Walking\liu\liu.ASF
:FULLY-SPECIFIED
:DEGREES
114
root 10.297915 17.816368 -23.585100 4.599265 3.938187 5.193991
lowerback -8.922518 -3.506701 -6.297291
upperback -1.101023 -4.210228 2.540186
thorax 4.445056 -2.213332 5.698781
lowerneck -21.386969 -5.653791 -14.654420
upperneck 23.617220 -6.449267 11.887370
head 11.957770 -2.770174 5.800509
rclavicle 0.000000 -0.000000
rhumerus -51.061123 10.439220 -92.906769
rradius 39.119080
rwrist -21.323940
rhand -32.452309 -26.332241
rfingers 7.837522
rthumb -3.120238 -59.289230
lclavicle 0.000000 -0.000000
lhumerus -27.412441 -29.317200 101.883102
lradius 46.713921
lwrist 14.344110
lhand -14.389540 -28.075081
lfingers 7.837522
lthumb 14.316280 4.456353
rfemur -44.343090 12.800151 8.018164
rtibia 31.593981
rfoot -24.764301 -9.411403
rtoes -20.501469
lfemur 14.906210 0.617718 -31.884600
ltibia 0.000000
lfoot -15.435861 2.980208
ltoes -3.717758
115
root 10.289422 17.792391 -23.432640 4.654859 4.434518 5.096399
lowerback -8.961843 -3.637700 -6.193220
upperback -1.089880 -4.391937 2.546346
thorax 4.496657 -2.303532 5.619856
lowerneck -21.261789 -5.696922 -14.591500
upperneck 23.441549 -6.546012 11.932139
head 11.882530 -2.805748 5.785703
rclavicle 0.000000 0.000000
rhumerus -51.031639 10.051855 -92.679733
rradius 38.809872
rwrist -21.096130
rhand -32.266411 -25.635609
rfingers 7.837522
rthumb -2.940773 -58.594910
lclavicle 0.000000 0.000000
lhumerus -27.898748 -29.406849 102.203529
lradius 46.875072
lwrist 14.318920
lhand -14.033690 -27.825491
lfingers 7.837522
lthumb 14.659260 4.683767
rfemur -44.656040 13.462131 7.443843
rtibia 31.060480
rfoot -25.796101 -10.388796
rtoes -20.909681
lfemur 15.440480 0.519603 -31.597830
ltibia 0.000000
lfoot -15.818770 2.668149
ltoes -3.136507
116
root 10.277179 17.763788 -23.278860 4.823819 4.578222 5.200580
lowerback -9.178026 -3.705801 -6.292770
upperback -1.058801 -4.457508 2.454386
thorax 4.659050 -2.341768 5.558707
lowerneck -21.382349 -5.636070 -14.446630
upperneck 23.469601 -6.531646 12.085590
head 11.913660 -2.766324 5.822410
rclavicle 0.000000 -0.000000
rhumerus -50.980270 9.740676 -92.595032
rradius 38.588768
rwrist -20.902750
rhand -32.457150 -25.475670
rfingers 7.837522
rthumb -3.124968 -58.432549
lclavicle 0.000000 -0.000000
lhumerus -28.280781 -29.457781 102.423203
lradius 46.831402
lwrist 14.250171
lhand -14.136100 -27.936811
lfingers 7.837522
lthumb 14.560480 4.578827
rfemur -45.145760 13.603260 7.050032
rtibia 30.584511
rfoot -26.056141 -10.985502
rtoes -21.530300
lfemur 15.869921 0.737748 -31.537109
ltibia 0.000000
lfoot -16.291000 2.285338
ltoes -2.896861
117
root 10.261472 17.737720 -23.132011 4.997575 4.813193 5.449884
lowerback -9.174869 -3.676222 -6.518952
upperback -1.145936 -4.392487 2.319691
thorax 4.562767 -2.306766 5.556078
lowerneck -21.182259 -5.593742 -14.535070
upperneck 23.356520 -6.546727 12.411190
head 11.850189 -2.747888 5.955928
rclavicle -0.000000 0.000000
rhumerus -51.259232 9.216779 -92.361725
rradius 38.450172
rwrist -20.809910
rhand -32.449120 -25.045790
rfingers 7.837522
rthumb -3.117224 -58.002781
lclavicle -0.000000 0.000000
lhumerus -28.715061 -29.699009 102.951309
lradius 46.625153
lwrist 14.039741
lhand -14.200120 -28.039000
lfingers 7.837522
lthumb 14.498880 4.480641
rfemur -45.603252 13.612061 6.488878
rtibia 30.212820
rfoot -26.221140 -11.409531
rtoes -21.553511
lfemur 16.328621 0.854879 -31.615980
ltibia -0.000000
lfoot -16.679190 1.891571
ltoes -2.778292
